<svg xmlns="http://www.w3.org/2000/svg" viewBox="0 0 470.1 183.57"><title>DT3Logo</title><g id="Camada_2" data-name="Camada 2"><g id="Camada_1-2" data-name="Camada 1"><path d="M335.32,0,298.74,46.86,156.17,46.8l8-35.76A14.36,14.36,0,0,1,175.38.31,16.07,16.07,0,0,1,178.56,0h1.55Z" style="fill:#fff;fill-rule:evenodd"/><polygon points="211.6 55.41 260 55.41 231.63 183.53 183.24 183.53 211.6 55.41" style="fill:#fff;fill-rule:evenodd"/><path d="M128.12,183.57c25.13,0,45.48-19.92,45.48-44.48a38.42,38.42,0,0,0-.56-7.57,34.51,34.51,0,0,0-2.7-8.15L166.4,115s0,0,0,0L116.19,10.54C111.34,0,103.94-.12,99.32.15L40.6.07,30.18,46.76l51.44,0,44.06,90.83H58.57L76.78,55.41H28.37L0,183.53l128.12,0" style="fill:#fff;fill-rule:evenodd"/><path d="M470.09,15.42a2.32,2.32,0,0,1,0,.24,13.38,13.38,0,0,1-2.67,7.75L450.1,46.83H316.31L352.87,0H453.7C462.08-.53,470.46,5.93,470.09,15.42Z" style="fill:red"/><path d="M423.48,125a41.32,41.32,0,0,1,4.1,16.29c.43,24.54-18.55,42-40,42.26l-88.09-.37-22-45.55h96.57L340.5,90l38.28-34.6h58.83L399.55,90s11.71,16.45,18.68,26.58A73.4,73.4,0,0,1,423.48,125Z" style="fill:red"/></g></g></svg>