<svg xmlns="http://www.w3.org/2000/svg" viewBox="0 0 470.1 261.37"><title>DT3officeLogo</title><g id="Camada_2" data-name="Camada 2"><g id="Camada_1-2" data-name="Camada 1"><path d="M335.32,0,298.74,46.86,156.17,46.8l8-35.76A14.36,14.36,0,0,1,175.38.31,16.07,16.07,0,0,1,178.56,0h1.55Z" style="fill:#fff;fill-rule:evenodd"/><polygon points="211.6 55.41 260 55.41 231.63 183.53 183.24 183.53 211.6 55.41" style="fill:#fff;fill-rule:evenodd"/><path d="M128.12,183.57c25.13,0,45.48-19.92,45.48-44.48a38.42,38.42,0,0,0-.56-7.57,34.51,34.51,0,0,0-2.7-8.15L166.4,115s0,0,0,0L116.19,10.54C111.34,0,103.94-.12,99.32.15L40.6.07,30.18,46.76l51.44,0,44.06,90.83H58.57L76.78,55.41H28.37L0,183.53l128.12,0" style="fill:#fff;fill-rule:evenodd"/><path d="M470.09,15.42a2.32,2.32,0,0,1,0,.24,13.38,13.38,0,0,1-2.67,7.75L450.1,46.83H316.31L352.87,0H453.7C462.08-.53,470.46,5.93,470.09,15.42Z" style="fill:red"/><path d="M423.48,125a41.32,41.32,0,0,1,4.1,16.29c.43,24.54-18.55,42-40,42.26l-88.09-.37-22-45.55h96.57L340.5,90l38.28-34.6h58.83L399.55,90s11.71,16.45,18.68,26.58A73.4,73.4,0,0,1,423.48,125Z" style="fill:red"/><path d="M189.58,253.32a28.54,28.54,0,0,1,0-37.81,25.23,25.23,0,0,1,36.23,0,28.42,28.42,0,0,1,0,37.81,25.16,25.16,0,0,1-36.23,0Zm2.55-35.58a26.21,26.21,0,0,0,0,33.35,21.23,21.23,0,0,0,31.09,0,26.14,26.14,0,0,0,0-33.35,21.36,21.36,0,0,0-31.13,0Z" style="fill:#fff;stroke:#fff;stroke-miterlimit:10;stroke-width:0.6853787833261549px"/><path d="M249,260.16V208.71h26.27v3H252.44v18.92h20.87v2.95H252.44v26.56Z" style="fill:#fff;stroke:#fff;stroke-miterlimit:10;stroke-width:0.6853787833261549px"/><path d="M288.78,260.16V208.71h26.27v3H292.23v18.92H313.1v2.95H292.23v26.56Z" style="fill:#fff;stroke:#fff;stroke-miterlimit:10;stroke-width:0.6853787833261549px"/><path d="M328.57,260.16V208.71H332v51.45Z" style="fill:#fff;stroke:#fff;stroke-miterlimit:10;stroke-width:0.6853787833261549px"/><path d="M375.35,261a27,27,0,0,1-19.28-7.66A25.07,25.07,0,0,1,348,234.43a26.86,26.86,0,0,1,7.06-18.92,23.45,23.45,0,0,1,18.06-7.67,56.28,56.28,0,0,1,17.49,2.88l-.94,2.88A57.45,57.45,0,0,0,373.12,211a19.6,19.6,0,0,0-15.4,6.76,24.13,24.13,0,0,0-6,16.55A22.55,22.55,0,0,0,358.69,251a22.81,22.81,0,0,0,16.66,6.88A38,38,0,0,0,390,255.27l1.08,2.44a23.25,23.25,0,0,1-7.16,2.45A45.34,45.34,0,0,1,375.35,261Z" style="fill:#fff;stroke:#fff;stroke-miterlimit:10;stroke-width:0.6853787833261549px"/><path d="M404.64,260.16V208.71h23.89v3H408.09v18.92h18.5v2.95h-18.5v23.54h21.23v3Z" style="fill:#fff;stroke:#fff;stroke-miterlimit:10;stroke-width:0.6853787833261549px"/></g></g></svg>