<svg xmlns="http://www.w3.org/2000/svg" viewBox="0 0 479.82 231.3"><title>DT3racingLogo</title><g id="Camada_2" data-name="Camada 2"><g id="Camada_1-2" data-name="Camada 1"><path d="M345,0,308.44,46.87l-142.6-.07,8-35.75A14.34,14.34,0,0,1,185.05.31,16.24,16.24,0,0,1,188.24,0h1.55Z" style="fill:#fff;fill-rule:evenodd"/><polygon points="221.29 55.42 269.69 55.42 241.32 183.56 192.91 183.56 221.29 55.42" style="fill:#fff;fill-rule:evenodd"/><path d="M137.79,183.6c25.13,0,45.49-19.92,45.49-44.49a37.65,37.65,0,0,0-.57-7.57,33.63,33.63,0,0,0-2.7-8.15l-3.93-8.33s0,0,0,0L125.86,10.54C121,0,113.61-.12,109,.15L50.26.07,39.84,46.77l51.44,0,44.07,90.84H68.23L86.45,55.42H38L9.65,183.56l128.14,0" style="fill:#fff;fill-rule:evenodd"/><path d="M479.81,15.42c0,.07,0,.15,0,.24a13.48,13.48,0,0,1-2.67,7.76l-17.3,23.41H326L362.57,0H463.41C471.79-.53,480.18,5.93,479.81,15.42Z" style="fill:red"/><path d="M433.19,125a41.32,41.32,0,0,1,4.1,16.29c.43,24.54-18.55,42-40,42.27l-88.1-.37-22-45.56h96.57L350.2,90l38.28-34.61h58.85L409.26,90s11.7,16.45,18.68,26.59A73.4,73.4,0,0,1,433.19,125Z" style="fill:red"/><polygon points="266.05 201.8 311.3 201.79 304.88 231.15 259.61 231.15 266.05 201.8" style="fill:#fff;fill-rule:evenodd"/><polygon points="317.37 201.86 351.52 201.96 345.1 231.15 310.94 231.15 317.37 201.86" style="fill:#fff;fill-rule:evenodd"/><polygon points="357.83 201.93 381.13 201.97 374.75 231.24 351.4 231.23 357.83 201.93" style="fill:#fff;fill-rule:evenodd"/><polygon points="386.69 201.98 398.2 201.99 391.77 231.28 380.27 231.24 386.69 201.98" style="fill:#fff;fill-rule:evenodd"/><polygon points="403.14 202 411.97 202 405.56 231.29 396.72 231.28 403.14 202" style="fill:#fff;fill-rule:evenodd"/><polygon points="416.89 202.03 422.61 202.03 416.31 231.27 410.59 231.26 416.89 202.03" style="fill:#fff;fill-rule:evenodd"/><path d="M50.09,201.92l-43.47-.11L0,231.17H8.94L11.66,219,33,231.2l10.58,0,.61-2.71L28,219.28H46.31ZM38.88,213.43h-26l1.33-5.89h26Z" style="fill:#fff"/><path d="M56.68,201.72l-6.41,29.49h8.8l2.7-11.9H87.53l-2.65,11.86h8.77l.61-2.71,2.11-9.25,3.79-17.36Zm32.26,11.62H63l1.32-5.89h26Z" style="fill:#fff"/><polygon points="113.42 207.49 147.88 207.44 149.12 201.8 105.7 201.81 99.29 231.3 108.09 231.29 133.91 231.25 142.67 231.24 143.93 225.51 109.44 225.51 113.42 207.49" style="fill:#fff;fill-rule:evenodd"/><polygon points="203.04 201.8 198.27 223.54 181.24 201.81 169.97 201.8 169.97 201.8 169.96 201.8 163.52 231.15 172.33 231.15 176.82 210.57 192.9 231.15 205.41 231.16 211.85 201.8 203.04 201.8" style="fill:#fff;fill-rule:evenodd"/><polygon points="155.13 201.73 163.96 201.75 157.55 231.09 148.7 231.08 155.13 201.73" style="fill:#fff;fill-rule:evenodd"/><polygon points="258.2 207.49 259.47 201.79 217.6 201.79 217.6 201.79 217.6 201.79 211.16 231.14 253.02 231.14 255.63 219.27 246.81 219.28 245.47 225.5 221.32 225.51 225.25 207.5 258.2 207.49" style="fill:#fff;fill-rule:evenodd"/></g></g></svg>