<svg xmlns="http://www.w3.org/2000/svg" viewBox="0 0 471.76 224.33"><title>DT3sportsLogo</title><g id="Camada_2" data-name="Camada 2"><g id="Camada_1-2" data-name="Camada 1"><path d="M339.21,0l-36,46.06L163,46l7.83-35.16A14.09,14.09,0,0,1,181.92.31,15.64,15.64,0,0,1,185.05,0h1.52Z" style="fill:#fff;fill-rule:evenodd"/><polygon points="217.55 54.49 265.15 54.49 237.25 180.49 189.65 180.49 217.55 54.49" style="fill:#fff;fill-rule:evenodd"/><path d="M135.45,180.53c24.71,0,44.73-19.59,44.73-43.75a37.21,37.21,0,0,0-.56-7.44,33.07,33.07,0,0,0-2.66-8l-3.86-8.19s0,0,0,0L123.71,10.36C118.94,0,111.67-.12,107.12.15L49.38.07,39.13,46l50.58,0L133,135.34H67L85,54.49H37.35l-27.9,126,126,0" style="fill:#fff;fill-rule:evenodd"/><path d="M471.75,15.17c0,.06,0,.14,0,.23A13.31,13.31,0,0,1,469.11,23l-17,23H320.52l36-46h99.16C463.87-.53,472.12,5.83,471.75,15.17Z" style="fill:red"/><path d="M425.91,122.91a40.62,40.62,0,0,1,4,16c.42,24.13-18.24,41.29-39.3,41.56L304,180.13l-21.66-44.8h95l-33-46.85,37.64-34h57.86L402.38,88.52s11.51,16.18,18.37,26.14A72.83,72.83,0,0,1,425.91,122.91Z" style="fill:red"/><polygon points="300.51 195.27 345.31 195.33 338.95 224.32 294.16 224.27 300.51 195.27" style="fill:#fff;fill-rule:evenodd"/><polygon points="351.35 195.31 385.19 195.28 378.81 224.33 345 224.32 351.35 195.31" style="fill:#fff;fill-rule:evenodd"/><polygon points="391.41 195.29 414.49 195.29 408.16 224.3 385.05 224.29 391.41 195.29" style="fill:#fff;fill-rule:evenodd"/><polygon points="420.37 195.27 431.77 195.28 425.37 224.32 414 224.31 420.37 195.27" style="fill:#fff;fill-rule:evenodd"/><polygon points="437.47 195.27 446.21 195.28 439.85 224.31 431.1 224.3 437.47 195.27" style="fill:#fff;fill-rule:evenodd"/><polygon points="451.6 195.28 457.26 195.29 451 224.3 445.33 224.29 451.6 195.28" style="fill:#fff;fill-rule:evenodd"/><polygon points="294.25 195.32 251.19 195.32 247.33 212.73 281.95 212.73 280.68 218.47 246.06 218.47 244.79 224.23 287.88 224.24 291.71 206.97 257.14 206.95 258.43 201.13 292.96 201.13 294.25 195.32" style="fill:#fff"/><polygon points="49.47 195.29 6.4 195.29 2.54 212.71 37.16 212.71 35.89 218.45 1.27 218.45 0 224.21 43.1 224.22 46.92 206.94 12.35 206.93 13.64 201.11 48.17 201.11 49.47 195.29" style="fill:#fff"/><path d="M55.92,195.3l-6.41,28.93h8.72l2.55-11.52h33.4L98,195.3Zm31,11.64H62.06l1.29-5.82H88.21Z" style="fill:#fff"/><path d="M104.46,195.31l-6.41,29h42.47l6.4-29Zm28.85,23.16H108.25l3.84-17.34h25.07Z" style="fill:#fff"/><polygon points="202.36 195.32 201.07 201.12 217.74 201.12 212.62 224.26 221.85 224.26 226.97 201.12 243.5 201.12 244.79 195.32 202.36 195.32" style="fill:#fff"/><path d="M195.92,195.3H153.4l-6.4,29h8.71l2.61-11.8,20.43,11.8h10.76l.53-2.41-15.85-9.14h17.87Zm-11.09,11.64h-25.3l1.29-5.82h25.3Z" style="fill:#fff"/></g></g></svg>